{"title":"American Muscle 2014 DVDRIP XVID AC3 ACAB","uid":11082287,"size":913735096,"categoryP":"video","categoryS":"movies","magnet":"?xt=urn:btih:17811b1142b21ffc354604691e595dcec85227e4&amp;dn=American+Muscle+2014+DVDRIP+XVID+AC3+ACAB&amp;tr=udp%3A%2F%2Ftracker.openbittorrent.com%3A80&amp;tr=udp%3A%2F%2Fopen.demonii.com%3A1337&amp;tr=udp%3A%2F%2Ftracker.coppersurfer.tk%3A6969&amp;tr=udp%3A%2F%2Fexodus.desync.com%3A6969","seeders":0,"leechers":1,"uploader":"xxxlavalxxx","files":-1,"time":1411422288,"description":"[IMG]http://i.imgur.com/nD4sIhl.jpg[/IMG]\n\n &lt;a href=&quot;\nhttp://www.imdb.com/title/tt2389162/&quot; rel=&quot;nofollow&quot; target=&quot;_NEW&quot;&gt;\nhttp://www.imdb.com/title/tt2389162/&lt;/a&gt;\n\n\nJohn Falcon did 10 years of hard time in prison. Now he's got 24 hours to get revenge on every person who had a hand in sending him there.\n\nDirector: Ravi Dhar\nWriter: John Fallon\nStars: Nick Principe, Robin Sydney, Todd Farmer\nGenres: Action\nCountry: USA\nLanguage: English\n\n\nFormat                                   : AVI\nFormat/Info                              : Audio Video Interleave\nFile size                                : 855 MiB\nDuration                                 : 1h 14mn\nOverall bit rate                         : 1 605 Kbps\n\nVideo\nID                                       : 0\nFormat                                   : MPEG-4 Visual\nFormat profile                           : Advanced Simple@L5\nFormat settings, BVOP                    : 2\nFormat settings, QPel                    : No\nFormat settings, GMC                     : No warppoints\nFormat settings, Matrix                  : Default (H.263)\nMuxing mode                              : Packed bitstream\nCodec ID                                 : XVID\nCodec ID/Hint                            : XviD\nDuration                                 : 1h 14mn\nBit rate                                 : 1 149 Kbps\nWidth                                    : 720 pixels\nHeight                                   : 304 pixels\nDisplay aspect ratio                     : 2.35:1\nFrame rate                               : 25.000 fps\nColor space                              : YUV\nChroma subsampling                       : 4:2:0\nBit depth                                : 8 bits\nScan type                                : Progressive\nCompression mode                         : Lossy\nBits/(Pixel*Frame)                       : 0.210\nStream size                              : 612 MiB (72%)\nWriting library                          : XviD 1.2.1 (UTC 2008-12-04)\n\nAudio\nID                                       : 1\nFormat                                   : AC-3\nFormat/Info                              : Audio Coding 3\nMode extension                           : CM (complete main)\nFormat settings, Endianness              : Big\nCodec ID                                 : 2000\nDuration                                 : 1h 14mn\nBit rate mode                            : Constant\nBit rate                                 : 448 Kbps\nChannel(s)                               : 6 channels\nChannel positions                        : Front: L C R, Side: L R, LFE\nSampling rate                            : 48.0 KHz\nBit depth                                : 16 bits\nCompression mode                         : Lossy\nStream size                              : 239 MiB (28%)\nAlignment                                : Aligned on interleaves\nInterleave, duration                     : 64 ms (1.60 video frames)\nInterleave, preload duration             : 192 ms\nTitle                                    : English\n\n\nscreens\n &lt;a href=&quot;\nhttp://i.imgur.com/LdZQ4Eo.png&quot; rel=&quot;nofollow&quot; target=&quot;_NEW&quot;&gt;\nhttp://i.imgur.com/LdZQ4Eo.png&lt;/a&gt; &lt;a href=&quot;\nhttp://i.imgur.com/NcRDD3K.png&quot; rel=&quot;nofollow&quot; target=&quot;_NEW&quot;&gt;\nhttp://i.imgur.com/NcRDD3K.png&lt;/a&gt; &lt;a href=&quot;\nhttp://i.imgur.com/QrljWKh.png&quot; rel=&quot;nofollow&quot; target=&quot;_NEW&quot;&gt;\nhttp://i.imgur.com/QrljWKh.png&lt;/a&gt; &lt;a href=&quot;\nhttp://i.imgur.com/ERGA4jy.png&quot; rel=&quot;nofollow&quot; target=&quot;_NEW&quot;&gt;\nhttp://i.imgur.com/ERGA4jy.png&lt;/a&gt;","torrent":{"xt":"urn:btih:17811b1142b21ffc354604691e595dcec85227e4","amp;dn":"American+Muscle+2014+DVDRIP+XVID+AC3+ACAB","amp;tr":["udp%3A%2F%2Ftracker.openbittorrent.com%3A80","udp%3A%2F%2Fopen.demonii.com%3A1337","udp%3A%2F%2Ftracker.coppersurfer.tk%3A6969","udp%3A%2F%2Fexodus.desync.com%3A6969"],"infoHash":"17811b1142b21ffc354604691e595dcec85227e4","infoHashBuffer":{"type":"Buffer","data":[23,129,27,17,66,178,31,252,53,70,4,105,30,89,93,206,200,82,39,228]},"announce":[],"urlList":[]}}